{
  "accessors": [
    {
      "bufferView": 2,
      "componentType": 5126,
      "count": 55676,
      "max": [
        1785.4884033203125,
        1475.7501220703125,
        1225.5330810546875
      ],
      "min": [
        -1786.2918701171875,
        -1475.573486328125,
        -1225.787353515625
      ],
      "type": "VEC3"
    },
    {
      "bufferView": 2,
      "byteOffset": 668112,
      "componentType": 5126,
      "count": 55676,
      "max": [
        0.99995130300521851,
        0.99996441602706909,
        0.99990546703338623
      ],
      "min": [
        -0.99998658895492554,
        -0.99999207258224487,
        -0.99999594688415527
      ],
      "type": "VEC3"
    },
    {
      "bufferView": 3,
      "componentType": 5126,
      "count": 55676,
      "max": [
        0.99998801946640015,
        0.9999966025352478,
        0.99995207786560059,
        1
      ],
      "min": [
        -0.99995338916778564,
        -0.99995547533035278,
        -0.99998807907104492,
        -1
      ],
      "type": "VEC4"
    },
    {
      "bufferView": 1,
      "componentType": 5126,
      "count": 55676,
      "max": [
        1,
        1
      ],
      "min": [
        0,
        0
      ],
      "type": "VEC2"
    },
    {
      "bufferView": 0,
      "componentType": 5125,
      "count": 309900,
      "max": [
        55675
      ],
      "min": [
        0
      ],
      "type": "SCALAR"
    },
    {
      "bufferView": 2,
      "byteOffset": 1336224,
      "componentType": 5126,
      "count": 9253,
      "max": [
        1717.1051025390625,
        1386.9969482421875,
        1156.1400146484375
      ],
      "min": [
        -1669.4058837890625,
        -1390.7393798828125,
        -1181.5357666015625
      ],
      "type": "VEC3"
    },
    {
      "bufferView": 2,
      "byteOffset": 1447260,
      "componentType": 5126,
      "count": 9253,
      "max": [
        0.99995464086532593,
        0.99992603063583374,
        0.99995124340057373
      ],
      "min": [
        -0.99947822093963623,
        -0.99986237287521362,
        -0.99979466199874878
      ],
      "type": "VEC3"
    },
    {
      "bufferView": 3,
      "byteOffset": 890816,
      "componentType": 5126,
      "count": 9253,
      "max": [
        0.99941110610961914,
        0.99930334091186523,
        0.99994790554046631,
        1
      ],
      "min": [
        -0.99907046556472778,
        -0.99989372491836548,
        -0.99957042932510376,
        1
      ],
      "type": "VEC4"
    },
    {
      "bufferView": 1,
      "byteOffset": 445408,
      "componentType": 5126,
      "count": 9253,
      "max": [
        1,
        1
      ],
      "min": [
        0,
        0
      ],
      "type": "VEC2"
    },
    {
      "bufferView": 0,
      "byteOffset": 1239600,
      "componentType": 5125,
      "count": 44706,
      "max": [
        9252
      ],
      "min": [
        0
      ],
      "type": "SCALAR"
    },
    {
      "bufferView": 2,
      "byteOffset": 1558296,
      "componentType": 5126,
      "count": 36,
      "max": [
        387.6488037109375,
        442.71588134765625,
        387.6488037109375
      ],
      "min": [
        -387.6488037109375,
        -438.91085815429688,
        -387.6488037109375
      ],
      "type": "VEC3"
    },
    {
      "bufferView": 2,
      "byteOffset": 1558728,
      "componentType": 5126,
      "count": 36,
      "max": [
        0.98822247982025146,
        1,
        0.98822247982025146
      ],
      "min": [
        -0.98822247982025146,
        -0.96548128128051758,
        -0.98822247982025146
      ],
      "type": "VEC3"
    },
    {
      "bufferView": 3,
      "byteOffset": 1038864,
      "componentType": 5126,
      "count": 36,
      "max": [
        1,
        0,
        1,
        1
      ],
      "min": [
        -1,
        0,
        -1,
        1
      ],
      "type": "VEC4"
    },
    {
      "bufferView": 1,
      "byteOffset": 519432,
      "componentType": 5126,
      "count": 36,
      "max": [
        1,
        1
      ],
      "min": [
        0,
        0
      ],
      "type": "VEC2"
    },
    {
      "bufferView": 0,
      "byteOffset": 1418424,
      "componentType": 5125,
      "count": 78,
      "max": [
        35
      ],
      "min": [
        0
      ],
      "type": "SCALAR"
    },
    {
      "bufferView": 2,
      "byteOffset": 1559160,
      "componentType": 5126,
      "count": 20,
      "max": [
        377.15948486328125,
        442.71588134765625,
        377.15948486328125
      ],
      "min": [
        -377.15948486328125,
        -438.91085815429688,
        -377.15948486328125
      ],
      "type": "VEC3"
    },
    {
      "bufferView": 2,
      "byteOffset": 1559400,
      "componentType": 5126,
      "count": 20,
      "max": [
        0.98394626379013062,
        0.17846494913101196,
        0.98394626379013062
      ],
      "min": [
        -0.98394626379013062,
        -1,
        -0.98394626379013062
      ],
      "type": "VEC3"
    },
    {
      "bufferView": 3,
      "byteOffset": 1039440,
      "componentType": 5126,
      "count": 20,
      "max": [
        1,
        0.98394620418548584,
        0.0048289611004292965,
        1
      ],
      "min": [
        0.17846184968948364,
        -0.98394614458084106,
        -0.0058930818922817707,
        1
      ],
      "type": "VEC4"
    },
    {
      "bufferView": 1,
      "byteOffset": 519720,
      "componentType": 5126,
      "count": 20,
      "max": [
        1,
        1
      ],
      "min": [
        0,
        0
      ],
      "type": "VEC2"
    },
    {
      "bufferView": 0,
      "byteOffset": 1418736,
      "componentType": 5125,
      "count": 30,
      "max": [
        19
      ],
      "min": [
        0
      ],
      "type": "SCALAR"
    }
  ],
  "asset": {
    "extras": {
      "author": "Elephai (https://sketchfab.com/elephai)",
      "license": "CC-BY-4.0 (http://creativecommons.org/licenses/by/4.0/)",
      "source": "https://sketchfab.com/3d-models/popcorn-25bf6d9807bb423a9017f01f11b215b4",
      "title": "Popcorn"
    },
    "generator": "Sketchfab-6.78.0",
    "version": "2.0"
  },
  "bufferViews": [
    {
      "buffer": 0,
      "byteLength": 1418856,
      "byteOffset": 0,
      "name": "floatBufferViews",
      "target": 34963
    },
    {
      "buffer": 0,
      "byteLength": 519880,
      "byteOffset": 1418856,
      "byteStride": 8,
      "name": "floatBufferViews",
      "target": 34962
    },
    {
      "buffer": 0,
      "byteLength": 1559640,
      "byteOffset": 1938736,
      "byteStride": 12,
      "name": "floatBufferViews",
      "target": 34962
    },
    {
      "buffer": 0,
      "byteLength": 1039760,
      "byteOffset": 3498376,
      "byteStride": 16,
      "name": "floatBufferViews",
      "target": 34962
    }
  ],
  "buffers": [
    {
      "byteLength": 4538136,
      "uri": "scene.bin"
    }
  ],
  "images": [
    {
      "uri": "textures/material_baseColor.png"
    }
  ],
  "materials": [
    {
      "doubleSided": true,
      "emissiveFactor": [
        0,
        0,
        0
      ],
      "name": "Mat.2",
      "pbrMetallicRoughness": {
        "baseColorFactor": [
          1,
          1,
          1,
          1
        ],
        "metallicFactor": 0,
        "roughnessFactor": 0.95243171539989113
      }
    },
    {
      "doubleSided": true,
      "emissiveFactor": [
        0,
        0,
        0
      ],
      "name": "Mat.1",
      "pbrMetallicRoughness": {
        "baseColorFactor": [
          0.66000000000000003,
          0.35199999999999998,
          0,
          1
        ],
        "metallicFactor": 0,
        "roughnessFactor": 0.95243171539989113
      }
    },
    {
      "doubleSided": true,
      "emissiveFactor": [
        0,
        0,
        0
      ],
      "name": "material",
      "pbrMetallicRoughness": {
        "baseColorFactor": [
          1,
          1,
          1,
          1
        ],
        "baseColorTexture": {
          "index": 0,
          "texCoord": 0
        },
        "metallicFactor": 0,
        "roughnessFactor": 0.95243171539989113
      }
    }
  ],
  "meshes": [
    {
      "name": "Popcorn_1_2_2_Mat.2_0",
      "primitives": [
        {
          "attributes": {
            "NORMAL": 1,
            "POSITION": 0,
            "TANGENT": 2,
            "TEXCOORD_0": 3
          },
          "indices": 4,
          "material": 0,
          "mode": 4
        }
      ]
    },
    {
      "name": "Popcorn_1_2_2_Mat.1_0",
      "primitives": [
        {
          "attributes": {
            "NORMAL": 6,
            "POSITION": 5,
            "TANGENT": 7,
            "TEXCOORD_0": 8
          },
          "indices": 9,
          "material": 1,
          "mode": 4
        }
      ]
    },
    {
      "name": "Cube_Mat_0",
      "primitives": [
        {
          "attributes": {
            "NORMAL": 11,
            "POSITION": 10,
            "TANGENT": 12,
            "TEXCOORD_0": 13
          },
          "indices": 14,
          "material": 2,
          "mode": 4
        }
      ]
    },
    {
      "name": "Cube_Mat.2_0",
      "primitives": [
        {
          "attributes": {
            "NORMAL": 16,
            "POSITION": 15,
            "TANGENT": 17,
            "TEXCOORD_0": 18
          },
          "indices": 19,
          "material": 0,
          "mode": 4
        }
      ]
    }
  ],
  "nodes": [
    {
      "children": [
        1
      ],
      "name": "RootNode (gltf orientation matrix)",
      "rotation": [
        -0.70710678118654746,
        -0,
        -0,
        0.70710678118654757
      ]
    },
    {
      "children": [
        2
      ],
      "name": "RootNode (model correction matrix)"
    },
    {
      "children": [
        3
      ],
      "matrix": [
        1,
        0,
        0,
        0,
        0,
        0,
        1,
        0,
        0,
        -1,
        0,
        0,
        0,
        0,
        0,
        1
      ],
      "name": "popcorns.fbx"
    },
    {
      "children": [
        4,
        8
      ],
      "name": "RootNode"
    },
    {
      "children": [
        5
      ],
      "name": "Polygon_Reduction"
    },
    {
      "children": [
        6,
        7
      ],
      "matrix": [
        1,
        0,
        0,
        0,
        0,
        1,
        1.3877787807814457e-17,
        0,
        0,
        -1.3877787807814457e-17,
        1,
        0,
        27.758928298950195,
        60.028583526611328,
        36.749122619628906,
        1
      ],
      "name": "Popcorn_1_2_2"
    },
    {
      "mesh": 0,
      "name": "Popcorn_1_2_2_Mat.2_0"
    },
    {
      "mesh": 1,
      "name": "Popcorn_1_2_2_Mat.1_0"
    },
    {
      "children": [
        9,
        10
      ],
      "matrix": [
        0.63869164785766297,
        0.1469534229265067,
        0.75529972226067077,
        0,
        -0.26195340850905663,
        0.96448641949745539,
        0.033857914517375465,
        0,
        -0.72350078833913534,
        -0.2194781039082529,
        0.65450437063283839,
        0,
        124.96319580078125,
        -1069.8961181640625,
        -14.114493370056152,
        1
      ],
      "name": "Cube"
    },
    {
      "mesh": 2,
      "name": "Cube_Mat_0"
    },
    {
      "mesh": 3,
      "name": "Cube_Mat.2_0"
    }
  ],
  "samplers": [
    {
      "magFilter": 9729,
      "minFilter": 9987,
      "wrapS": 10497,
      "wrapT": 10497
    }
  ],
  "scene": 0,
  "scenes": [
    {
      "name": "OSG_Scene",
      "nodes": [
        0
      ]
    }
  ],
  "textures": [
    {
      "sampler": 0,
      "source": 0
    }
  ]
}

